<svg width="0" height="0" class="hidden">
  <symbol xmlns="http://www.w3.org/2000/svg" fill="#000000" viewBox="0 0 24 24" id="create_black_24dp">
    <path d="M0 0h24v24H0V0z" fill="none"></path>
    <path
      d="M3 17.25V21h3.75L17.81 9.94l-3.75-3.75L3 17.25zM5.92 19H5v-.92l9.06-9.06.92.92L5.92 19zM20.71 5.63l-2.34-2.34c-.2-.2-.45-.29-.71-.29s-.51.1-.7.29l-1.83 1.83 3.75 3.75 1.83-1.83c.39-.39.39-1.02 0-1.41z">
    </path>
  </symbol>
  <symbol xmlns="http://www.w3.org/2000/svg" enable-background="new 0 0 24 24" fill="#000000" viewBox="0 0 24 24"
    id="timer_black_24dp">
    <g>
      <rect fill="none" height="24" width="24"></rect>
    </g>
    <g>
      <g>
        <g>
          <path
            d="M15,1H9v2h6V1z M11,14h2V8h-2V14z M19.03,7.39l1.42-1.42c-0.43-0.51-0.9-0.99-1.41-1.41l-1.42,1.42 C16.07,4.74,14.12,4,12,4c-4.97,0-9,4.03-9,9s4.02,9,9,9s9-4.03,9-9C21,10.88,20.26,8.93,19.03,7.39z M12,20c-3.87,0-7-3.13-7-7 s3.13-7,7-7s7,3.13,7,7S15.87,20,12,20z">
          </path>
        </g>
      </g>
    </g>
  </symbol>
  <symbol xmlns="http://www.w3.org/2000/svg" fill="#000000" viewBox="0 0 24 24" id="refresh_black_24dp">
    <path d="M0 0h24v24H0V0z" fill="none"></path>
    <path
      d="M17.65 6.35C16.2 4.9 14.21 4 12 4c-4.42 0-7.99 3.58-7.99 8s3.57 8 7.99 8c3.73 0 6.84-2.55 7.73-6h-2.08c-.82 2.33-3.04 4-5.65 4-3.31 0-6-2.69-6-6s2.69-6 6-6c1.66 0 3.14.69 4.22 1.78L13 11h7V4l-2.35 2.35z">
    </path>
  </symbol>
  <symbol xmlns="http://www.w3.org/2000/svg" fill="#000000" viewBox="0 0 24 24" id="play_arrow_black_24dp">
    <path d="M0 0h24v24H0V0z" fill="none"></path>
    <path d="M10 8.64L15.27 12 10 15.36V8.64M8 5v14l11-7L8 5z"></path>
  </symbol>
  <symbol xmlns="http://www.w3.org/2000/svg" fill="#000000" viewBox="0 0 24 24" id="pause_black_24dp">
    <path d="M0 0h24v24H0V0z" fill="none"></path>
    <path d="M6 19h4V5H6v14zm8-14v14h4V5h-4z"></path>
  </symbol>
  <symbol xmlns="http://www.w3.org/2000/svg" fill="#000000" viewBox="0 0 24 24" id="done_black_24dp">
    <path d="M0 0h24v24H0V0z" fill="none"></path>
    <path d="M9 16.2L4.8 12l-1.4 1.4L9 19 21 7l-1.4-1.4L9 16.2z"></path>
  </symbol>
</svg>